HIERARCHY
ROOT joint_Root
{
	OFFSET 0.0 0.0 0.0
	CHANNELS 6 Xposition Yposition Zposition Zrotation Xrotation Yrotation 
	JOINT Hips
	{
		OFFSET -17.1583 93.1646 452.98
		CHANNELS 6 Xposition Yposition Zposition Zrotation Xrotation Yrotation 
		JOINT Spine
		{
			OFFSET 15.7357 0.0 0.0
			CHANNELS 6 Xposition Yposition Zposition Zrotation Xrotation Yrotation 
			JOINT Chest
			{
				OFFSET 8.98455 -0.406207 0.0
				CHANNELS 6 Xposition Yposition Zposition Zrotation Xrotation Yrotation 
				JOINT Neck
				{
					OFFSET 16.3773 0.0 0.0
					CHANNELS 6 Xposition Yposition Zposition Zrotation Xrotation Yrotation 
					JOINT Head
					{
						OFFSET 6.45672 0.0 0.0
						CHANNELS 6 Xposition Yposition Zposition Zrotation Xrotation Yrotation 
						End Site
						{
							OFFSET 0.0 0.0 0.0
						}
					}
				}
				JOINT Shoulder_L
				{
					OFFSET 12.9942 -0.242716 4.98039
					CHANNELS 6 Xposition Yposition Zposition Zrotation Xrotation Yrotation 
					JOINT UpperArm_L
					{
						OFFSET 5.34809 0.0 0.0
						CHANNELS 6 Xposition Yposition Zposition Zrotation Xrotation Yrotation 
						JOINT LowerArm_L
						{
							OFFSET 24.3286 1.87007e-05 0.0
							CHANNELS 6 Xposition Yposition Zposition Zrotation Xrotation Yrotation 
							JOINT Hand_L
							{
								OFFSET 22.2916 0.0 0.0
								CHANNELS 6 Xposition Yposition Zposition Zrotation Xrotation Yrotation 
								End Site
								{
									OFFSET 0.0 0.0 0.0
								}
							}
						}
					}
				}
				JOINT Shoulder_R
				{
					OFFSET 12.9945 -0.242716 -4.98039
					CHANNELS 6 Xposition Yposition Zposition Zrotation Xrotation Yrotation 
					JOINT UpperArm_R
					{
						OFFSET -5.34813 0.0 0.0
						CHANNELS 6 Xposition Yposition Zposition Zrotation Xrotation Yrotation 
						JOINT LowerArm_R
						{
							OFFSET -24.3289 0.000322201 0.0
							CHANNELS 6 Xposition Yposition Zposition Zrotation Xrotation Yrotation 
							JOINT Hand_R
							{
								OFFSET -22.2915 -0.000108084 0.0
								CHANNELS 6 Xposition Yposition Zposition Zrotation Xrotation Yrotation 
								End Site
								{
									OFFSET 0.0 0.0 0.0
								}
							}
						}
					}
				}
			}
		}
		JOINT UpperLeg_L
		{
			OFFSET -2.19248 -6.46944 0.0
			CHANNELS 6 Xposition Yposition Zposition Zrotation Xrotation Yrotation 
			JOINT LowerLeg_L
			{
				OFFSET 39.0811 0.0 -1.23785e-05
				CHANNELS 6 Xposition Yposition Zposition Zrotation Xrotation Yrotation 
				JOINT Foot_L
				{
					OFFSET 40.9854 0.0 -1.26872e-05
					CHANNELS 6 Xposition Yposition Zposition Zrotation Xrotation Yrotation 
					JOINT Toes_L
					{
						OFFSET 11.7543 0.0 0.0
						CHANNELS 6 Xposition Yposition Zposition Zrotation Xrotation Yrotation 
						End Site
						{
							OFFSET 0.0 0.0 0.0
						}
					}
				}
			}
		}
		JOINT UpperLeg_R
		{
			OFFSET -2.19251 6.46944 0.0
			CHANNELS 6 Xposition Yposition Zposition Zrotation Xrotation Yrotation 
			JOINT LowerLeg_R
			{
				OFFSET -39.0811 -0.00228153 -0.0401928
				CHANNELS 6 Xposition Yposition Zposition Zrotation Xrotation Yrotation 
				JOINT Foot_R
				{
					OFFSET -40.9854 0.0 0.0
					CHANNELS 6 Xposition Yposition Zposition Zrotation Xrotation Yrotation 
					JOINT Toes_R
					{
						OFFSET -11.7543 0.0 0.0
						CHANNELS 6 Xposition Yposition Zposition Zrotation Xrotation Yrotation 
						End Site
						{
							OFFSET 0.0 0.0 0.0
						}
					}
				}
			}
		}
	}
}
MOTION
Frames:	6
Frame Time:	0.0333333
0.000000 0.000000 0.000000 0.000000 0.000000 -0.000000 1.329650 92.742000 -536.240000 94.073900 -6.842410 -6.950150 15.735700 0.000005 -0.000001 123.484000 86.773600 -124.510000 8.984550 -0.406207 -0.000000 -2.352470 3.649510 -1.978280 16.377300 -0.000001 -0.000001 0.885037 1.359950 -1.474140 6.456720 -0.000001 -0.000000 0.139028 -1.353570 -2.411700 12.994200 -0.242716 4.980390 -92.832400 7.003160 -67.913800 5.348090 -0.000007 -0.000001 -68.172200 -12.221700 18.104400 24.328600 0.000019 0.000005 7.276350 25.624500 -16.448600 22.291600 -0.000001 0.000005 48.657500 4.612030 14.707200 12.994500 -0.242716 -4.980390 88.715000 4.573110 -74.286400 -5.348130 -0.000001 -0.000004 -71.412900 8.712230 -14.945400 -24.328900 0.000322 -0.000009 -3.673230 -2.619470 -54.541300 -22.291500 -0.000108 -0.000004 40.140300 5.476100 -5.598670 -2.192480 -6.469440 -0.000000 -179.337000 6.494910 -36.485500 39.081100 -0.000007 -0.000012 0.040736 -0.078004 27.574300 40.985400 -0.000006 -0.000013 -9.911020 9.799220 -54.962400 11.754300 -0.000000 0.000003 0.002234 0.110571 -12.092900 -2.192510 6.469440 -0.000001 179.196000 31.216700 -179.757000 -39.081100 -0.002282 -0.040193 -0.006088 0.058478 9.158430 -40.985400 0.000008 0.000006 -8.029180 -3.445790 -77.194400 -11.754300 -0.000006 -0.000006 0.001176 0.144741 -10.703500
0.000000 0.000000 0.000000 0.000000 0.000000 -0.000000 1.373300 92.311500 -534.473000 94.132100 -7.136040 -6.622510 15.735700 0.000005 -0.000001 123.315000 86.543700 -124.407000 8.984550 -0.406207 -0.000000 -1.952930 3.888300 -2.119690 16.377300 -0.000001 -0.000001 0.691954 1.464020 -1.647980 6.456720 -0.000001 -0.000000 -0.089738 -1.352190 -2.529790 12.994200 -0.242716 4.980390 -92.798400 6.927670 -67.939400 5.348090 -0.000007 -0.000001 -69.619800 -12.187400 18.575200 24.328600 0.000019 0.000005 5.552970 25.908100 -12.544600 22.291600 -0.000001 0.000005 48.159500 4.612150 14.705100 12.994500 -0.242716 -4.980390 88.729800 4.602050 -74.552400 -5.348130 -0.000001 -0.000004 -72.271500 11.236500 -15.244300 -24.328900 0.000322 -0.000009 -5.630930 -3.791320 -56.146100 -22.291500 -0.000108 -0.000004 39.210700 5.477280 -5.644500 -2.192480 -6.469440 -0.000000 -178.216000 7.282490 -35.767600 39.081100 -0.000007 -0.000012 0.036241 -0.078811 24.695000 40.985400 -0.000006 -0.000013 -9.620610 9.746600 -56.904900 11.754300 -0.000000 0.000003 0.002331 0.104817 -12.326200 -2.192510 6.469440 -0.000001 178.126000 30.478900 -178.808000 -39.081100 -0.002282 -0.040193 -0.008749 0.064506 10.612800 -40.985400 0.000008 0.000006 -8.232780 -4.141050 -78.427800 -11.754300 -0.000006 -0.000006 0.000236 0.163590 -9.938390
0.000000 0.000000 0.000000 0.000000 0.000000 -0.000000 1.337760 91.761800 -532.336000 94.116600 -7.033940 -6.348440 15.735700 0.000005 -0.000001 121.896000 86.472800 -122.987000 8.984550 -0.406207 -0.000000 -1.740690 3.816980 -2.124960 16.377300 -0.000001 -0.000001 0.751888 1.526940 -1.856590 6.456720 -0.000001 -0.000000 -0.201051 -1.223960 -2.633140 12.994200 -0.242716 4.980390 -92.782600 6.925510 -68.046100 5.348090 -0.000007 -0.000001 -71.004500 -11.755700 18.904000 24.328600 0.000019 0.000005 4.563340 26.310500 -10.207800 22.291600 -0.000001 0.000005 47.438700 4.622510 14.525600 12.994500 -0.242716 -4.980390 88.709700 4.685440 -74.584700 -5.348130 -0.000001 -0.000004 -72.608600 14.145900 -15.331400 -24.328900 0.000322 -0.000009 -6.783290 -4.438080 -56.949000 -22.291500 -0.000108 -0.000004 38.984700 5.481500 -5.804670 -2.192480 -6.469440 -0.000000 -177.406000 7.449990 -35.370800 39.081100 -0.000007 -0.000012 0.032840 -0.078109 22.803900 40.985400 -0.000006 -0.000013 -9.809850 9.935060 -59.342800 11.754300 -0.000000 0.000003 0.002207 0.111956 -12.036800 -2.192510 6.469440 -0.000001 177.052000 30.114500 -177.326000 -39.081100 -0.002282 -0.040193 -0.018694 0.107820 11.548100 -40.985400 0.000008 0.000006 -8.722780 -4.700460 -79.289600 -11.754300 -0.000006 -0.000006 -0.001020 0.183355 -9.135510
0.000000 0.000000 0.000000 0.000000 0.000000 -0.000000 1.305690 91.104900 -529.806000 93.979100 -6.658910 -6.054420 15.735700 0.000005 -0.000001 120.898000 86.465100 -121.935000 8.984550 -0.406207 -0.000000 -1.666130 3.714850 -2.020200 16.377300 -0.000001 -0.000001 0.962684 1.490420 -1.988260 6.456720 -0.000001 -0.000000 -0.119384 -1.235730 -2.711500 12.994200 -0.242716 4.980390 -92.784200 6.954320 -68.117000 5.348090 -0.000007 -0.000001 -72.142400 -11.020200 18.815100 24.328600 0.000019 0.000005 4.217180 26.374600 -9.424200 22.291600 -0.000001 0.000005 46.827700 4.645700 14.121000 12.994500 -0.242716 -4.980390 88.694600 4.732620 -74.560600 -5.348130 -0.000001 -0.000004 -73.054300 16.165200 -14.550200 -24.328900 0.000322 -0.000009 -6.103180 -3.936750 -57.290600 -22.291500 -0.000108 -0.000004 37.869400 5.485160 -5.947370 -2.192480 -6.469440 -0.000000 -177.461000 6.107180 -35.056400 39.081100 -0.000007 -0.000012 0.030734 -0.076703 21.835300 40.985400 -0.000006 -0.000013 -10.476800 10.798800 -61.260600 11.754300 -0.000000 0.000003 0.001994 0.121138 -11.664400 -2.192510 6.469440 -0.000001 175.752000 30.153500 -174.837000 -39.081100 -0.002282 -0.040193 -0.040341 0.215151 11.475600 -40.985400 0.000008 0.000006 -10.116400 -4.627260 -79.777700 -11.754300 -0.000006 -0.000006 -0.002789 0.205858 -8.220460
0.000000 0.000000 0.000000 0.000000 0.000000 -0.000000 1.317340 90.315900 -526.903000 94.030000 -6.365570 -5.844770 15.735700 0.000005 -0.000001 122.129000 86.479300 -123.205000 8.984550 -0.406207 -0.000000 -1.767320 3.833400 -2.091840 16.377300 -0.000001 -0.000001 1.162720 1.363950 -2.026320 6.456720 -0.000001 -0.000000 0.089387 -1.369290 -2.695750 12.994200 -0.242716 4.980390 -92.818300 7.015550 -68.048000 5.348090 -0.000007 -0.000001 -72.712900 -10.320700 18.055700 24.328600 0.000019 0.000005 4.298360 26.177400 -9.668860 22.291600 -0.000001 0.000005 46.341100 4.658320 13.899200 12.994500 -0.242716 -4.980390 88.681200 4.756630 -74.484700 -5.348130 -0.000001 -0.000004 -73.788400 17.197400 -12.887000 -24.328900 0.000322 -0.000009 -5.466880 -3.524710 -57.278300 -22.291500 -0.000108 -0.000004 37.380000 5.479850 -5.742850 -2.192480 -6.469440 -0.000000 -178.275000 4.072370 -35.061300 39.081100 -0.000007 -0.000012 0.026409 -0.064959 22.124300 40.985400 -0.000006 -0.000013 -10.932700 11.588700 -62.846100 11.754300 -0.000000 0.000003 0.002013 0.120405 -11.694200 -2.192510 6.469440 -0.000001 174.361000 29.061200 -172.500000 -39.081100 -0.002282 -0.040193 -0.056511 0.284061 11.897200 -40.985400 0.000008 0.000006 -11.740200 -5.135540 -80.656600 -11.754300 -0.000006 -0.000006 -0.003229 0.210834 -8.017920
0.000000 0.000000 0.000000 0.000000 0.000000 -0.000000 1.551890 89.480300 -523.622000 94.267700 -6.654200 -5.607770 15.735700 0.000005 -0.000001 125.466000 86.460100 -126.663000 8.984550 -0.406207 -0.000000 -1.956470 4.208310 -2.323900 16.377300 -0.000001 -0.000001 1.360880 1.334550 -1.951310 6.456720 -0.000001 -0.000000 0.271367 -1.410140 -2.661730 12.994200 -0.242716 4.980390 -92.932900 7.248130 -67.898900 5.348090 -0.000007 -0.000001 -72.695800 -9.694620 16.975500 24.328600 0.000019 0.000005 4.763330 25.590000 -10.919300 22.291600 -0.000001 0.000005 46.132600 4.664710 13.786400 12.994500 -0.242716 -4.980390 88.713100 4.637340 -74.471200 -5.348130 -0.000001 -0.000004 -74.575400 17.824700 -11.109200 -24.328900 0.000322 -0.000009 -6.311920 -4.256490 -56.132600 -22.291500 -0.000108 -0.000004 37.244800 5.484930 -5.938170 -2.192480 -6.469440 -0.000000 -179.596000 1.844110 -34.938600 39.081100 -0.000007 -0.000012 0.021367 -0.048893 23.605400 40.985400 -0.000006 -0.000013 -10.958900 12.132900 -64.614300 11.754300 -0.000000 0.000003 0.001888 0.124975 -11.508800 -2.192510 6.469440 -0.000001 172.892000 26.075400 -170.892000 -39.081100 -0.002282 -0.040193 -0.067948 0.292771 13.683600 -40.985400 0.000008 0.000006 -13.590200 -6.261210 -81.971200 -11.754300 -0.000006 -0.000006 -0.001760 0.193337 -8.729730
